<svg width="36" height="36" viewBox="0 0 36 36" fill="none" xmlns="http://www.w3.org/2000/svg">
<rect width="36" height="36" rx="18" fill="#56CDAD"/>
<path d="M20.825 12.3415L21.9999 14.6915C22.1583 15.0165 22.5833 15.3248 22.9416 15.3915L25.0666 15.7415C26.425 15.9665 26.7416 16.9498 25.7666 17.9332L24.1083 19.5915C23.8333 19.8665 23.675 20.4082 23.7666 20.7998L24.2416 22.8498C24.6166 24.4665 23.75 25.0998 22.325 24.2498L20.3333 23.0665C19.9749 22.8498 19.375 22.8498 19.0166 23.0665L17.0249 24.2498C15.5999 25.0915 14.7333 24.4665 15.1083 22.8498L15.5833 20.7998C15.675 20.4165 15.5166 19.8748 15.2416 19.5915L13.5833 17.9332C12.6083 16.9582 12.925 15.9748 14.2833 15.7415L16.4083 15.3915C16.7666 15.3332 17.1916 15.0165 17.35 14.6915L18.525 12.3415C19.15 11.0665 20.1833 11.0665 20.825 12.3415Z" stroke="white" stroke-width="1.5" stroke-linecap="round" stroke-linejoin="round"/>
<path d="M14.6665 12.1665H9.6665" stroke="white" stroke-width="1.5" stroke-linecap="round" stroke-linejoin="round"/>
<path d="M12.1665 23.8335H9.6665" stroke="white" stroke-width="1.5" stroke-linecap="round" stroke-linejoin="round"/>
<path d="M10.4998 18H9.6665" stroke="white" stroke-width="1.5" stroke-linecap="round" stroke-linejoin="round"/>
</svg>
