<svg width="36" height="36" viewBox="0 0 36 36" fill="none" xmlns="http://www.w3.org/2000/svg">
<rect width="36" height="36" rx="18" fill="#26A4FF"/>
<path d="M19.1668 22.5167H17.0751C15.7085 22.5167 14.6001 21.3667 14.6001 19.9501C14.6001 19.6084 14.8835 19.3251 15.2251 19.3251C15.5668 19.3251 15.8501 19.6084 15.8501 19.9501C15.8501 20.6751 16.4001 21.2667 17.0751 21.2667H19.1668C19.7085 21.2667 20.1585 20.7834 20.1585 20.2001C20.1585 19.4751 19.9001 19.3334 19.4751 19.1834L16.1168 18.0001C15.4668 17.7751 14.5918 17.2917 14.5918 15.8001C14.5918 14.5167 15.6001 13.4834 16.8335 13.4834H18.9251C20.2918 13.4834 21.4001 14.6334 21.4001 16.0501C21.4001 16.3917 21.1168 16.6751 20.7751 16.6751C20.4335 16.6751 20.1501 16.3917 20.1501 16.0501C20.1501 15.3251 19.6001 14.7334 18.9251 14.7334H16.8335C16.2918 14.7334 15.8418 15.2167 15.8418 15.8001C15.8418 16.5251 16.1001 16.6667 16.5251 16.8167L19.8835 18.0001C20.5335 18.2251 21.4085 18.7084 21.4085 20.2001C21.4001 21.4751 20.4001 22.5167 19.1668 22.5167Z" fill="white"/>
<path d="M18 23.625C17.6583 23.625 17.375 23.3417 17.375 23V13C17.375 12.6583 17.6583 12.375 18 12.375C18.3417 12.375 18.625 12.6583 18.625 13V23C18.625 23.3417 18.3417 23.625 18 23.625Z" fill="white"/>
<path d="M20.4998 26.9582H15.4998C10.9748 26.9582 9.0415 25.0248 9.0415 20.4998V15.4998C9.0415 10.9748 10.9748 9.0415 15.4998 9.0415H20.4998C25.0248 9.0415 26.9582 10.9748 26.9582 15.4998V20.4998C26.9582 25.0248 25.0248 26.9582 20.4998 26.9582ZM15.4998 10.2915C11.6582 10.2915 10.2915 11.6582 10.2915 15.4998V20.4998C10.2915 24.3415 11.6582 25.7082 15.4998 25.7082H20.4998C24.3415 25.7082 25.7082 24.3415 25.7082 20.4998V15.4998C25.7082 11.6582 24.3415 10.2915 20.4998 10.2915H15.4998Z" fill="white"/>
</svg>
