<svg width="36" height="36" viewBox="0 0 36 36" fill="none" xmlns="http://www.w3.org/2000/svg">
<rect width="36" height="36" rx="18" fill="#7B61FF"/>
<path d="M25.5 19.0457C23.1171 20.0092 20.5704 20.503 18 20.4998C15.3475 20.4998 12.8167 19.9832 10.5 19.0457M18 17.9998H18.0083M21.3333 12.9998V11.3332C21.3333 10.8911 21.1577 10.4672 20.8452 10.1547C20.5326 9.8421 20.1087 9.6665 19.6667 9.6665H16.3333C15.8913 9.6665 15.4674 9.8421 15.1548 10.1547C14.8423 10.4672 14.6667 10.8911 14.6667 11.3332V12.9998H21.3333ZM12.1667 24.6665H23.8333C24.2754 24.6665 24.6993 24.4909 25.0118 24.1783C25.3244 23.8658 25.5 23.4419 25.5 22.9998V14.6665C25.5 14.2245 25.3244 13.8006 25.0118 13.488C24.6993 13.1754 24.2754 12.9998 23.8333 12.9998H12.1667C11.7246 12.9998 11.3007 13.1754 10.9882 13.488C10.6756 13.8006 10.5 14.2245 10.5 14.6665V22.9998C10.5 23.4419 10.6756 23.8658 10.9882 24.1783C11.3007 24.4909 11.7246 24.6665 12.1667 24.6665Z" stroke="white" stroke-width="2" stroke-linecap="round" stroke-linejoin="round"/>
</svg>
