<svg width="128" height="36" viewBox="0 0 128 36" fill="none" xmlns="http://www.w3.org/2000/svg">
<g clip-path="url(#clip0_501_2204)">
<circle cx="16" cy="18" r="16" fill="url(#paint0_linear_501_2204)"/>
<path d="M15.9205 24.9164C14.8194 24.9163 13.7345 24.6492 12.7575 24.1376C11.7804 23.6261 10.94 22.8851 10.3071 21.9773C9.67421 21.0694 9.2675 20.0215 9.12133 18.9219C8.97515 17.8223 9.09381 16.7034 9.46728 15.6598C9.84075 14.6162 10.4581 13.6785 11.267 12.9259C12.076 12.1733 13.0529 11.6279 14.1151 11.3359C15.1774 11.0439 16.2938 11.0138 17.3701 11.2481C18.4463 11.4824 19.4507 11.9743 20.2985 12.6822C20.6911 13.0105 21.1794 13.2004 21.6891 13.2228C22.1988 13.2452 22.7017 13.0989 23.1211 12.8063L23.9442 12.2284C24.0592 12.1471 24.1559 12.0423 24.2279 11.9208C24.2999 11.7993 24.3457 11.6639 24.3622 11.5234C24.3787 11.3829 24.3656 11.2404 24.3237 11.1053C24.2819 10.9702 24.2122 10.8456 24.1192 10.7395C22.5521 8.94244 20.4462 7.70907 18.1208 7.22632C15.7954 6.74357 13.3772 7.03776 11.2326 8.06431C9.08806 9.09085 7.3341 10.7938 6.23655 12.915C5.13899 15.0363 4.75768 17.4602 5.15039 19.8194C5.54311 22.1787 6.68844 24.3446 8.41282 25.989C10.1372 27.6334 12.3466 28.6666 14.7062 28.9321C17.0658 29.1975 19.447 28.6807 21.4889 27.4599C23.5307 26.2392 25.122 24.3811 26.0214 22.1672C26.0734 22.0381 26.0931 21.8981 26.0788 21.7595C26.0646 21.6209 26.0168 21.488 25.9398 21.3723C25.8627 21.2566 25.7586 21.1617 25.6367 21.096C25.5148 21.0302 25.3787 20.9956 25.2405 20.9951H23.2313C22.9058 20.9967 22.5857 21.0784 22.2987 21.2332C22.0118 21.388 21.7668 21.6111 21.5851 21.8832C20.9589 22.8168 20.1151 23.5814 19.1275 24.1102C18.14 24.639 17.0388 24.9158 15.9205 24.9164Z" fill="white"/>
<path opacity="0.5" d="M25.079 17.4852C24.7998 17.3279 24.4788 17.2626 24.1609 17.2983C23.8431 17.334 23.5442 17.469 23.3063 17.6844C22.8405 18.1358 22.2221 18.3925 21.5759 18.4027L19.6736 18.3831C19.2922 18.3887 18.9154 18.2995 18.5763 18.1236C18.2372 17.9476 17.9463 17.6902 17.7293 17.3742C17.511 17.0418 17.2161 16.7676 16.8699 16.5749C16.5237 16.3821 16.1363 16.2766 15.7409 16.2673C15.3454 16.258 14.9536 16.3451 14.5988 16.5213C14.244 16.6976 13.9368 16.9576 13.7033 17.2793C13.4698 17.601 13.317 17.9749 13.2579 18.3689C13.1988 18.763 13.2352 19.1656 13.3639 19.5425C13.4926 19.9193 13.7098 20.2592 13.9971 20.5332C14.2843 20.8072 14.6331 21.0071 15.0136 21.116C15.4965 21.2662 16.014 21.2594 16.4928 21.0965C16.9715 20.9335 17.3872 20.6227 17.6806 20.2083C17.8879 19.8832 18.1719 19.6149 18.5073 19.4274C18.8426 19.2399 19.2189 19.1392 19.6023 19.1341L21.456 19.1537C21.7814 19.1494 22.1042 19.2117 22.405 19.3369C22.7058 19.462 22.9783 19.6474 23.2059 19.8818C23.3947 20.0884 23.6372 20.2377 23.9059 20.3128C24.2676 20.4212 24.6564 20.391 24.9974 20.228C25.3384 20.0651 25.6076 19.7808 25.7531 19.43C25.8987 19.0791 25.9104 18.6864 25.7859 18.3274C25.6615 17.9684 25.4097 17.6685 25.079 17.4852Z" fill="white"/>
</g>
<path d="M49.768 27.264C48.52 27.264 47.36 27.048 46.288 26.616C45.216 26.168 44.272 25.552 43.456 24.768C42.64 23.968 42 23.048 41.536 22.008C41.088 20.952 40.864 19.816 40.864 18.6C40.864 17.384 41.088 16.256 41.536 15.216C42 14.16 42.632 13.24 43.432 12.456C44.232 11.656 45.168 11.04 46.24 10.608C47.328 10.16 48.488 9.936 49.72 9.936C51.112 9.936 52.424 10.216 53.656 10.776C54.888 11.32 55.904 12.088 56.704 13.08L54.28 15.312C53.704 14.592 53.024 14.048 52.24 13.68C51.456 13.312 50.616 13.128 49.72 13.128C48.968 13.128 48.272 13.272 47.632 13.56C46.992 13.832 46.432 14.216 45.952 14.712C45.472 15.192 45.096 15.768 44.824 16.44C44.568 17.096 44.44 17.816 44.44 18.6C44.44 19.384 44.576 20.112 44.848 20.784C45.12 21.456 45.496 22.04 45.976 22.536C46.472 23.016 47.04 23.4 47.68 23.688C48.336 23.96 49.048 24.096 49.816 24.096C50.616 24.096 51.336 23.952 51.976 23.664C52.616 23.36 53.152 22.944 53.584 22.416C54.032 21.872 54.328 21.264 54.472 20.592H49.504V17.568H58.192V18.624C58.192 19.872 57.976 21.024 57.544 22.08C57.128 23.12 56.544 24.032 55.792 24.816C55.04 25.584 54.152 26.184 53.128 26.616C52.104 27.048 50.984 27.264 49.768 27.264ZM60.1107 27V10.2L63.3987 9.648V27H60.1107ZM69.7141 27.216C68.8181 27.216 68.0261 27.056 67.3381 26.736C66.6501 26.4 66.1141 25.944 65.7301 25.368C65.3461 24.792 65.1541 24.128 65.1541 23.376C65.1541 22.176 65.6021 21.248 66.4981 20.592C67.4101 19.92 68.6581 19.584 70.2421 19.584C71.3301 19.584 72.3541 19.752 73.3141 20.088V19.176C73.3141 18.456 73.0901 17.912 72.6421 17.544C72.1941 17.176 71.5381 16.992 70.6741 16.992C70.1461 16.992 69.5781 17.08 68.9701 17.256C68.3621 17.416 67.6581 17.672 66.8581 18.024L65.6581 15.6C66.6501 15.152 67.5941 14.816 68.4901 14.592C69.4021 14.368 70.3141 14.256 71.2261 14.256C72.9061 14.256 74.2101 14.664 75.1381 15.48C76.0821 16.28 76.5541 17.416 76.5541 18.888V27H73.3141V26.112C72.8021 26.496 72.2501 26.776 71.6581 26.952C71.0661 27.128 70.4181 27.216 69.7141 27.216ZM68.2741 23.304C68.2741 23.784 68.4821 24.168 68.8981 24.456C69.3141 24.728 69.8661 24.864 70.5541 24.864C71.0981 24.864 71.6021 24.8 72.0661 24.672C72.5301 24.528 72.9461 24.32 73.3141 24.048V22.224C72.9141 22.064 72.4981 21.944 72.0661 21.864C71.6341 21.784 71.1701 21.744 70.6741 21.744C69.9221 21.744 69.3301 21.888 68.8981 22.176C68.4821 22.448 68.2741 22.824 68.2741 23.304ZM78.8026 27V14.496H82.0906V15.528C83.0346 14.68 84.2026 14.256 85.5946 14.256C86.5706 14.256 87.4266 14.472 88.1626 14.904C88.9146 15.32 89.4986 15.904 89.9146 16.656C90.3306 17.392 90.5386 18.256 90.5386 19.248V27H87.2506V19.728C87.2506 18.912 87.0186 18.272 86.5546 17.808C86.0906 17.328 85.4586 17.088 84.6586 17.088C84.0986 17.088 83.6026 17.2 83.1706 17.424C82.7386 17.632 82.3786 17.936 82.0906 18.336V27H78.8026ZM98.7651 27.24C97.5331 27.24 96.4211 26.96 95.4291 26.4C94.4371 25.824 93.6531 25.048 93.0771 24.072C92.5011 23.08 92.2131 21.976 92.2131 20.76C92.2131 19.528 92.5011 18.424 93.0771 17.448C93.6531 16.472 94.4371 15.696 95.4291 15.12C96.4211 14.544 97.5331 14.256 98.7651 14.256C99.7571 14.256 100.701 14.448 101.597 14.832C102.509 15.216 103.293 15.768 103.949 16.488L101.933 18.624C101.469 18.112 100.981 17.736 100.469 17.496C99.9731 17.24 99.4291 17.112 98.8371 17.112C98.1971 17.112 97.6211 17.272 97.1091 17.592C96.6131 17.912 96.2131 18.344 95.9091 18.888C95.6211 19.432 95.4771 20.056 95.4771 20.76C95.4771 21.432 95.6211 22.048 95.9091 22.608C96.2131 23.152 96.6291 23.584 97.1571 23.904C97.6851 24.208 98.2691 24.36 98.9091 24.36C99.4691 24.36 99.9891 24.248 100.469 24.024C100.965 23.784 101.437 23.432 101.885 22.968L103.853 25.032C103.213 25.72 102.445 26.264 101.549 26.664C100.653 27.048 99.7251 27.24 98.7651 27.24ZM111.091 27.24C109.843 27.24 108.707 26.952 107.683 26.376C106.675 25.8 105.875 25.024 105.283 24.048C104.691 23.072 104.395 21.976 104.395 20.76C104.395 19.544 104.675 18.448 105.235 17.472C105.811 16.496 106.587 15.72 107.563 15.144C108.539 14.568 109.627 14.28 110.827 14.28C112.027 14.28 113.091 14.576 114.019 15.168C114.947 15.76 115.675 16.56 116.203 17.568C116.747 18.576 117.019 19.72 117.019 21V21.864H107.755C107.899 22.36 108.131 22.808 108.451 23.208C108.787 23.608 109.195 23.92 109.675 24.144C110.171 24.368 110.699 24.48 111.259 24.48C111.819 24.48 112.331 24.392 112.795 24.216C113.275 24.04 113.683 23.792 114.019 23.472L116.179 25.44C115.411 26.064 114.619 26.52 113.803 26.808C113.003 27.096 112.099 27.24 111.091 27.24ZM107.707 19.512H113.779C113.667 19.016 113.459 18.584 113.155 18.216C112.867 17.832 112.515 17.536 112.099 17.328C111.699 17.104 111.251 16.992 110.755 16.992C110.243 16.992 109.779 17.096 109.363 17.304C108.947 17.512 108.595 17.808 108.307 18.192C108.035 18.56 107.835 19 107.707 19.512ZM118.793 27V14.496H122.081V15.888C122.481 15.344 122.961 14.928 123.521 14.64C124.081 14.352 124.713 14.208 125.417 14.208C126.025 14.224 126.481 14.32 126.785 14.496V17.376C126.545 17.264 126.281 17.184 125.993 17.136C125.705 17.072 125.409 17.04 125.105 17.04C124.465 17.04 123.881 17.2 123.353 17.52C122.825 17.84 122.401 18.296 122.081 18.888V27H118.793Z" fill="url(#paint1_linear_501_2204)"/>
<defs>
<linearGradient id="paint0_linear_501_2204" x1="16" y1="2" x2="16" y2="34" gradientUnits="userSpaceOnUse">
<stop stop-color="#4640DE"/>
<stop offset="1" stop-color="#8F40DE"/>
</linearGradient>
<linearGradient id="paint1_linear_501_2204" x1="84" y1="0" x2="84" y2="36" gradientUnits="userSpaceOnUse">
<stop stop-color="#4640DE"/>
<stop offset="1" stop-color="#8F40DE"/>
</linearGradient>
<clipPath id="clip0_501_2204">
<rect width="32" height="32" fill="white" transform="translate(0 2)"/>
</clipPath>
</defs>
</svg>
